<mxfile host="app.diagrams.net" modified="2021-02-20T22:51:50.883Z" agent="5.0 (Macintosh; Intel Mac OS X 10_14_6) AppleWebKit/537.36 (KHTML, like Gecko) Chrome/88.0.4324.150 Safari/537.36" etag="e3TyHtn_tGX_SLkqpvKM" version="14.4.2" type="github">
  <diagram id="oElT3TKTSD2FCPyZ0pLu" name="Page-1">
    <mxGraphModel dx="495" dy="510" grid="1" gridSize="10" guides="1" tooltips="1" connect="1" arrows="1" fold="1" page="1" pageScale="1" pageWidth="827" pageHeight="1169" math="0" shadow="0">
      <root>
        <mxCell id="0" />
        <mxCell id="1" parent="0" />
        <mxCell id="dL7PWLy5DeC1aneGoH9E-20" value="" style="shape=cube;whiteSpace=wrap;html=1;boundedLbl=1;backgroundOutline=1;darkOpacity=0.05;darkOpacity2=0.1;fontSize=18;size=10;rotation=90;" vertex="1" parent="1">
          <mxGeometry x="317.5" y="132.5" width="135" height="150" as="geometry" />
        </mxCell>
        <mxCell id="dL7PWLy5DeC1aneGoH9E-3" value="Deployment Diagram" style="text;align=center;fontStyle=1;verticalAlign=middle;spacingLeft=3;spacingRight=3;strokeColor=none;rotatable=0;points=[[0,0.5],[1,0.5]];portConstraint=eastwest;fontSize=18;" vertex="1" parent="1">
          <mxGeometry x="220" y="70" width="80" height="26" as="geometry" />
        </mxCell>
        <mxCell id="dL7PWLy5DeC1aneGoH9E-11" style="rounded=0;orthogonalLoop=1;jettySize=auto;html=1;fontSize=18;startArrow=none;startFill=0;endArrow=none;endFill=0;exitX=0;exitY=0;exitDx=75;exitDy=0;exitPerimeter=0;" edge="1" parent="1" source="dL7PWLy5DeC1aneGoH9E-17">
          <mxGeometry relative="1" as="geometry">
            <mxPoint x="160" y="220" as="sourcePoint" />
            <mxPoint x="310" y="256" as="targetPoint" />
          </mxGeometry>
        </mxCell>
        <mxCell id="dL7PWLy5DeC1aneGoH9E-9" value="" style="shape=cylinder3;whiteSpace=wrap;html=1;boundedLbl=1;backgroundOutline=1;size=15;fontSize=18;" vertex="1" parent="1">
          <mxGeometry x="320" y="200" width="120" height="60" as="geometry" />
        </mxCell>
        <mxCell id="dL7PWLy5DeC1aneGoH9E-10" value="&amp;lt;&amp;lt;database&amp;gt;&amp;gt;&lt;br style=&quot;font-size: 12px;&quot;&gt;MySQL 5.5" style="text;html=1;strokeColor=none;fillColor=none;align=center;verticalAlign=middle;whiteSpace=wrap;rounded=0;fontSize=12;" vertex="1" parent="1">
          <mxGeometry x="335" y="234" width="90" height="20" as="geometry" />
        </mxCell>
        <mxCell id="dL7PWLy5DeC1aneGoH9E-13" value="&amp;lt;&amp;lt;protocol&amp;gt;&amp;gt;&lt;br style=&quot;font-size: 12px;&quot;&gt;TCP/IP" style="text;html=1;strokeColor=none;fillColor=none;align=center;verticalAlign=middle;whiteSpace=wrap;rounded=0;fontSize=12;" vertex="1" parent="1">
          <mxGeometry x="210" y="315" width="40" height="20" as="geometry" />
        </mxCell>
        <mxCell id="dL7PWLy5DeC1aneGoH9E-17" value="" style="shape=cube;whiteSpace=wrap;html=1;boundedLbl=1;backgroundOutline=1;darkOpacity=0.05;darkOpacity2=0.1;fontSize=18;size=10;rotation=90;" vertex="1" parent="1">
          <mxGeometry x="37.5" y="242.5" width="115" height="130" as="geometry" />
        </mxCell>
        <mxCell id="dL7PWLy5DeC1aneGoH9E-18" value="&amp;lt;&amp;lt;device&amp;gt;&amp;gt;&lt;br style=&quot;font-size: 12px;&quot;&gt;Web Server" style="text;html=1;strokeColor=none;fillColor=none;align=center;verticalAlign=middle;whiteSpace=wrap;rounded=0;fontSize=12;" vertex="1" parent="1">
          <mxGeometry x="35" y="260" width="110" height="40" as="geometry" />
        </mxCell>
        <mxCell id="dL7PWLy5DeC1aneGoH9E-19" value="&amp;lt;&amp;lt;artifact&amp;gt;&amp;gt;&lt;br style=&quot;font-size: 12px;&quot;&gt;eXama Website" style="html=1;align=center;verticalAlign=top;rounded=1;absoluteArcSize=1;arcSize=10;dashed=0;fontSize=12;" vertex="1" parent="1">
          <mxGeometry x="40" y="310" width="100" height="40" as="geometry" />
        </mxCell>
        <mxCell id="dL7PWLy5DeC1aneGoH9E-21" value="&amp;lt;&amp;lt;device&amp;gt;&amp;gt;&lt;br style=&quot;font-size: 12px&quot;&gt;DB Server" style="text;html=1;strokeColor=none;fillColor=none;align=center;verticalAlign=middle;whiteSpace=wrap;rounded=0;fontSize=12;" vertex="1" parent="1">
          <mxGeometry x="320" y="150" width="110" height="40" as="geometry" />
        </mxCell>
        <mxCell id="dL7PWLy5DeC1aneGoH9E-24" value="" style="shape=cube;whiteSpace=wrap;html=1;boundedLbl=1;backgroundOutline=1;darkOpacity=0.05;darkOpacity2=0.1;fontSize=18;size=10;rotation=90;" vertex="1" parent="1">
          <mxGeometry x="320" y="320" width="160" height="180" as="geometry" />
        </mxCell>
        <mxCell id="dL7PWLy5DeC1aneGoH9E-25" value="&amp;lt;&amp;lt;device&amp;gt;&amp;gt;&lt;br style=&quot;font-size: 12px&quot;&gt;User Client" style="text;html=1;strokeColor=none;fillColor=none;align=center;verticalAlign=middle;whiteSpace=wrap;rounded=0;fontSize=12;" vertex="1" parent="1">
          <mxGeometry x="345" y="340" width="110" height="40" as="geometry" />
        </mxCell>
        <mxCell id="dL7PWLy5DeC1aneGoH9E-27" value="" style="shape=cube;whiteSpace=wrap;html=1;boundedLbl=1;backgroundOutline=1;darkOpacity=0.05;darkOpacity2=0.1;fontSize=18;size=10;rotation=90;" vertex="1" parent="1">
          <mxGeometry x="347.5" y="362.5" width="105" height="140" as="geometry" />
        </mxCell>
        <mxCell id="dL7PWLy5DeC1aneGoH9E-28" value="&amp;lt;&amp;lt;device&amp;gt;&amp;gt;&lt;br style=&quot;font-size: 12px&quot;&gt;Browser" style="text;html=1;strokeColor=none;fillColor=none;align=center;verticalAlign=middle;whiteSpace=wrap;rounded=0;fontSize=12;" vertex="1" parent="1">
          <mxGeometry x="342.5" y="390" width="110" height="40" as="geometry" />
        </mxCell>
        <mxCell id="dL7PWLy5DeC1aneGoH9E-26" value="&amp;lt;&amp;lt;artifact&amp;gt;&amp;gt;&lt;br style=&quot;font-size: 12px&quot;&gt;HTML 5, CSS" style="html=1;align=center;verticalAlign=top;rounded=1;absoluteArcSize=1;arcSize=10;dashed=0;fontSize=12;" vertex="1" parent="1">
          <mxGeometry x="347.5" y="430" width="100" height="40" as="geometry" />
        </mxCell>
        <mxCell id="dL7PWLy5DeC1aneGoH9E-29" style="rounded=0;orthogonalLoop=1;jettySize=auto;html=1;fontSize=18;startArrow=none;startFill=0;endArrow=none;endFill=0;exitX=0.652;exitY=-0.008;exitDx=0;exitDy=0;exitPerimeter=0;" edge="1" parent="1" source="dL7PWLy5DeC1aneGoH9E-17" target="dL7PWLy5DeC1aneGoH9E-27">
          <mxGeometry relative="1" as="geometry">
            <mxPoint x="170" y="335" as="sourcePoint" />
            <mxPoint x="320" y="266" as="targetPoint" />
          </mxGeometry>
        </mxCell>
      </root>
    </mxGraphModel>
  </diagram>
</mxfile>
